<mxfile host="app.diagrams.net" modified="2020-08-24T04:58:08.467Z" agent="5.0 (X11; Linux x86_64) AppleWebKit/537.36 (KHTML, like Gecko) Chrome/84.0.4147.105 Safari/537.36" etag="EmuCqljJVMEfy58y_Fh-" version="13.4.5" type="github" pages="2">
  <diagram id="W9apcFs2qvgN_YsfxOK1" name="Page-1">
    <mxGraphModel dx="1422" dy="777" grid="1" gridSize="10" guides="1" tooltips="1" connect="1" arrows="1" fold="1" page="1" pageScale="1" pageWidth="1100" pageHeight="850" math="0" shadow="0">
      <root>
        <mxCell id="0" />
        <mxCell id="1" parent="0" />
        <mxCell id="O0jEczCmDdBqccvXgOhn-1" value="起點" style="ellipse;whiteSpace=wrap;html=1;" vertex="1" parent="1">
          <mxGeometry x="400" y="320" width="80" height="80" as="geometry" />
        </mxCell>
        <mxCell id="O0jEczCmDdBqccvXgOhn-2" value="程式語言" style="ellipse;whiteSpace=wrap;html=1;" vertex="1" parent="1">
          <mxGeometry x="520" y="300" width="120" height="120" as="geometry" />
        </mxCell>
        <mxCell id="O0jEczCmDdBqccvXgOhn-3" value="電子電路" style="ellipse;whiteSpace=wrap;html=1;" vertex="1" parent="1">
          <mxGeometry x="380" y="160" width="120" height="120" as="geometry" />
        </mxCell>
        <mxCell id="O0jEczCmDdBqccvXgOhn-4" value="機械結構" style="ellipse;whiteSpace=wrap;html=1;" vertex="1" parent="1">
          <mxGeometry x="380" y="440" width="120" height="120" as="geometry" />
        </mxCell>
        <mxCell id="O0jEczCmDdBqccvXgOhn-5" value="應用數學" style="ellipse;whiteSpace=wrap;html=1;aspect=fixed;" vertex="1" parent="1">
          <mxGeometry x="240" y="300" width="120" height="120" as="geometry" />
        </mxCell>
        <mxCell id="O0jEczCmDdBqccvXgOhn-6" value="Lego組件" style="ellipse;whiteSpace=wrap;html=1;aspect=fixed;" vertex="1" parent="1">
          <mxGeometry x="610" y="670" width="80" height="80" as="geometry" />
        </mxCell>
        <mxCell id="O0jEczCmDdBqccvXgOhn-7" value="3D打印機" style="ellipse;whiteSpace=wrap;html=1;aspect=fixed;" vertex="1" parent="1">
          <mxGeometry x="220" y="660" width="80" height="80" as="geometry" />
        </mxCell>
        <mxCell id="O0jEczCmDdBqccvXgOhn-8" value="雷射切割機" style="ellipse;whiteSpace=wrap;html=1;aspect=fixed;" vertex="1" parent="1">
          <mxGeometry x="190" y="540" width="80" height="80" as="geometry" />
        </mxCell>
        <mxCell id="O0jEczCmDdBqccvXgOhn-9" value="算法入門" style="ellipse;whiteSpace=wrap;html=1;aspect=fixed;" vertex="1" parent="1">
          <mxGeometry x="770" y="450" width="80" height="80" as="geometry" />
        </mxCell>
        <mxCell id="O0jEczCmDdBqccvXgOhn-10" value="基礎編程" style="ellipse;whiteSpace=wrap;html=1;aspect=fixed;" vertex="1" parent="1">
          <mxGeometry x="680" y="320" width="80" height="80" as="geometry" />
        </mxCell>
        <mxCell id="O0jEczCmDdBqccvXgOhn-11" value="基礎電學" style="ellipse;whiteSpace=wrap;html=1;aspect=fixed;" vertex="1" parent="1">
          <mxGeometry x="400" y="40" width="80" height="80" as="geometry" />
        </mxCell>
        <mxCell id="O0jEczCmDdBqccvXgOhn-12" value="基礎力學" style="ellipse;whiteSpace=wrap;html=1;aspect=fixed;" vertex="1" parent="1">
          <mxGeometry x="400" y="600" width="80" height="80" as="geometry" />
        </mxCell>
        <mxCell id="O0jEczCmDdBqccvXgOhn-13" value="Arduino" style="ellipse;whiteSpace=wrap;html=1;aspect=fixed;" vertex="1" parent="1">
          <mxGeometry x="560" y="160" width="80" height="80" as="geometry" />
        </mxCell>
        <mxCell id="O0jEczCmDdBqccvXgOhn-14" value="Raspberry Pi" style="ellipse;whiteSpace=wrap;html=1;aspect=fixed;" vertex="1" parent="1">
          <mxGeometry x="760" y="150" width="80" height="80" as="geometry" />
        </mxCell>
        <mxCell id="O0jEczCmDdBqccvXgOhn-15" value="Jetson Nano" style="ellipse;whiteSpace=wrap;html=1;aspect=fixed;" vertex="1" parent="1">
          <mxGeometry x="910" y="290" width="80" height="80" as="geometry" />
        </mxCell>
        <mxCell id="O0jEczCmDdBqccvXgOhn-16" value="Linux" style="ellipse;whiteSpace=wrap;html=1;aspect=fixed;" vertex="1" parent="1">
          <mxGeometry x="600" y="20" width="80" height="80" as="geometry" />
        </mxCell>
        <mxCell id="O0jEczCmDdBqccvXgOhn-17" value="Python" style="ellipse;whiteSpace=wrap;html=1;aspect=fixed;" vertex="1" parent="1">
          <mxGeometry x="200" y="130" width="80" height="80" as="geometry" />
        </mxCell>
        <mxCell id="O0jEczCmDdBqccvXgOhn-18" value="C/C++" style="ellipse;whiteSpace=wrap;html=1;aspect=fixed;" vertex="1" parent="1">
          <mxGeometry x="70" y="260" width="80" height="80" as="geometry" />
        </mxCell>
        <mxCell id="O0jEczCmDdBqccvXgOhn-19" value="HTML&lt;br&gt;CSS" style="ellipse;whiteSpace=wrap;html=1;aspect=fixed;" vertex="1" parent="1">
          <mxGeometry x="60" y="110" width="80" height="80" as="geometry" />
        </mxCell>
        <mxCell id="O0jEczCmDdBqccvXgOhn-21" value="Javascript&lt;br&gt;JQuery" style="ellipse;whiteSpace=wrap;html=1;aspect=fixed;" vertex="1" parent="1">
          <mxGeometry x="140" y="40" width="80" height="80" as="geometry" />
        </mxCell>
        <mxCell id="O0jEczCmDdBqccvXgOhn-22" value="OpenCV" style="ellipse;whiteSpace=wrap;html=1;aspect=fixed;" vertex="1" parent="1">
          <mxGeometry x="110" y="425" width="80" height="80" as="geometry" />
        </mxCell>
        <mxCell id="O0jEczCmDdBqccvXgOhn-23" value="Tensorflow&lt;br&gt;Keras" style="ellipse;whiteSpace=wrap;html=1;aspect=fixed;" vertex="1" parent="1">
          <mxGeometry x="550" y="470" width="80" height="80" as="geometry" />
        </mxCell>
        <mxCell id="O0jEczCmDdBqccvXgOhn-24" value="Scikit-Learn" style="ellipse;whiteSpace=wrap;html=1;aspect=fixed;" vertex="1" parent="1">
          <mxGeometry x="760" y="540" width="80" height="80" as="geometry" />
        </mxCell>
        <mxCell id="O0jEczCmDdBqccvXgOhn-25" value="numpy&lt;br&gt;matplotlib" style="ellipse;whiteSpace=wrap;html=1;aspect=fixed;" vertex="1" parent="1">
          <mxGeometry x="40" y="550" width="80" height="80" as="geometry" />
        </mxCell>
        <mxCell id="O0jEczCmDdBqccvXgOhn-26" value="GPIO" style="ellipse;whiteSpace=wrap;html=1;aspect=fixed;" vertex="1" parent="1">
          <mxGeometry x="790" y="30" width="80" height="80" as="geometry" />
        </mxCell>
        <mxCell id="O0jEczCmDdBqccvXgOhn-27" value="正/反&lt;br&gt;運動學" style="ellipse;whiteSpace=wrap;html=1;aspect=fixed;" vertex="1" parent="1">
          <mxGeometry x="280" y="50" width="80" height="80" as="geometry" />
        </mxCell>
        <mxCell id="O0jEczCmDdBqccvXgOhn-28" value="ROS" style="ellipse;whiteSpace=wrap;html=1;aspect=fixed;" vertex="1" parent="1">
          <mxGeometry x="880" y="530" width="80" height="80" as="geometry" />
        </mxCell>
        <mxCell id="O0jEczCmDdBqccvXgOhn-29" value="Color Space" style="ellipse;whiteSpace=wrap;html=1;aspect=fixed;" vertex="1" parent="1">
          <mxGeometry x="250" y="450" width="80" height="80" as="geometry" />
        </mxCell>
        <mxCell id="O0jEczCmDdBqccvXgOhn-30" value="專家系統" style="ellipse;whiteSpace=wrap;html=1;aspect=fixed;" vertex="1" parent="1">
          <mxGeometry x="940" y="120" width="80" height="80" as="geometry" />
        </mxCell>
        <mxCell id="O0jEczCmDdBqccvXgOhn-31" value="物件分類" style="ellipse;whiteSpace=wrap;html=1;aspect=fixed;" vertex="1" parent="1">
          <mxGeometry x="280" y="200" width="80" height="80" as="geometry" />
        </mxCell>
      </root>
    </mxGraphModel>
  </diagram>
  <diagram id="o1ch6NI5eIXvpj2VR4MX" name="Page-2">
    <mxGraphModel dx="1422" dy="777" grid="1" gridSize="10" guides="1" tooltips="1" connect="1" arrows="1" fold="1" page="1" pageScale="1" pageWidth="1100" pageHeight="850" math="0" shadow="0">
      <root>
        <mxCell id="ctgBbKC-Sr3JcYhxxYbN-0" />
        <mxCell id="ctgBbKC-Sr3JcYhxxYbN-1" parent="ctgBbKC-Sr3JcYhxxYbN-0" />
        <mxCell id="ctgBbKC-Sr3JcYhxxYbN-3" value="編程基礎" style="html=1;shadow=0;dashed=0;align=center;verticalAlign=middle;shape=mxgraph.arrows2.arrow;dy=0;dx=30;notch=30;rotation=90;horizontal=0;" vertex="1" parent="ctgBbKC-Sr3JcYhxxYbN-1">
          <mxGeometry x="50" y="110" width="100" height="120" as="geometry" />
        </mxCell>
        <mxCell id="ctgBbKC-Sr3JcYhxxYbN-8" value="數據結構" style="html=1;shadow=0;dashed=0;align=center;verticalAlign=middle;shape=mxgraph.arrows2.arrow;dy=0;dx=30;notch=30;rotation=90;horizontal=0;" vertex="1" parent="ctgBbKC-Sr3JcYhxxYbN-1">
          <mxGeometry x="50" y="190" width="100" height="120" as="geometry" />
        </mxCell>
        <mxCell id="ctgBbKC-Sr3JcYhxxYbN-10" value="算法入門" style="html=1;shadow=0;dashed=0;align=center;verticalAlign=middle;shape=mxgraph.arrows2.arrow;dy=0;dx=30;notch=30;rotation=90;horizontal=0;" vertex="1" parent="ctgBbKC-Sr3JcYhxxYbN-1">
          <mxGeometry x="50" y="270" width="100" height="120" as="geometry" />
        </mxCell>
        <mxCell id="ctgBbKC-Sr3JcYhxxYbN-12" value="進階算法" style="html=1;shadow=0;dashed=0;align=center;verticalAlign=middle;shape=mxgraph.arrows2.arrow;dy=0;dx=30;notch=30;rotation=90;horizontal=0;" vertex="1" parent="ctgBbKC-Sr3JcYhxxYbN-1">
          <mxGeometry x="50" y="350" width="100" height="120" as="geometry" />
        </mxCell>
        <mxCell id="ctgBbKC-Sr3JcYhxxYbN-13" value="機器學習" style="html=1;shadow=0;dashed=0;align=center;verticalAlign=middle;shape=mxgraph.arrows2.arrow;dy=0;dx=30;notch=0;rotation=90;horizontal=0;" vertex="1" parent="ctgBbKC-Sr3JcYhxxYbN-1">
          <mxGeometry x="850" y="30" width="100" height="120" as="geometry" />
        </mxCell>
        <mxCell id="ctgBbKC-Sr3JcYhxxYbN-14" value="圖像處理" style="html=1;shadow=0;dashed=0;align=center;verticalAlign=middle;shape=mxgraph.arrows2.arrow;dy=0;dx=30;notch=0;rotation=90;horizontal=0;" vertex="1" parent="ctgBbKC-Sr3JcYhxxYbN-1">
          <mxGeometry x="530" y="30" width="100" height="120" as="geometry" />
        </mxCell>
        <mxCell id="ctgBbKC-Sr3JcYhxxYbN-15" value="電子電路" style="html=1;shadow=0;dashed=0;align=center;verticalAlign=middle;shape=mxgraph.arrows2.arrow;dy=0;dx=30;notch=0;rotation=90;horizontal=0;" vertex="1" parent="ctgBbKC-Sr3JcYhxxYbN-1">
          <mxGeometry x="370" y="30" width="100" height="120" as="geometry" />
        </mxCell>
        <mxCell id="ctgBbKC-Sr3JcYhxxYbN-18" value="經典模型" style="html=1;shadow=0;dashed=0;align=center;verticalAlign=middle;shape=mxgraph.arrows2.arrow;dy=0;dx=30;notch=30;rotation=90;horizontal=0;" vertex="1" parent="ctgBbKC-Sr3JcYhxxYbN-1">
          <mxGeometry x="850" y="190" width="100" height="120" as="geometry" />
        </mxCell>
        <mxCell id="ctgBbKC-Sr3JcYhxxYbN-19" value="卷積神徑網絡" style="html=1;shadow=0;dashed=0;align=center;verticalAlign=middle;shape=mxgraph.arrows2.arrow;dy=0;dx=30;notch=30;rotation=90;horizontal=0;" vertex="1" parent="ctgBbKC-Sr3JcYhxxYbN-1">
          <mxGeometry x="850" y="350" width="100" height="120" as="geometry" />
        </mxCell>
        <mxCell id="ctgBbKC-Sr3JcYhxxYbN-20" value="色彩模型" style="html=1;shadow=0;dashed=0;align=center;verticalAlign=middle;shape=mxgraph.arrows2.arrow;dy=0;dx=30;notch=30;rotation=90;horizontal=0;" vertex="1" parent="ctgBbKC-Sr3JcYhxxYbN-1">
          <mxGeometry x="530" y="110" width="100" height="120" as="geometry" />
        </mxCell>
        <mxCell id="ctgBbKC-Sr3JcYhxxYbN-21" value="濾波處理" style="html=1;shadow=0;dashed=0;align=center;verticalAlign=middle;shape=mxgraph.arrows2.arrow;dy=0;dx=30;notch=30;rotation=90;horizontal=0;" vertex="1" parent="ctgBbKC-Sr3JcYhxxYbN-1">
          <mxGeometry x="530" y="270" width="100" height="120" as="geometry" />
        </mxCell>
        <mxCell id="ctgBbKC-Sr3JcYhxxYbN-22" value="基本操作" style="html=1;shadow=0;dashed=0;align=center;verticalAlign=middle;shape=mxgraph.arrows2.arrow;dy=0;dx=30;notch=30;rotation=90;horizontal=0;" vertex="1" parent="ctgBbKC-Sr3JcYhxxYbN-1">
          <mxGeometry x="530" y="190" width="100" height="120" as="geometry" />
        </mxCell>
        <mxCell id="ctgBbKC-Sr3JcYhxxYbN-23" value="輪廓處理" style="html=1;shadow=0;dashed=0;align=center;verticalAlign=middle;shape=mxgraph.arrows2.arrow;dy=0;dx=30;notch=30;rotation=90;horizontal=0;" vertex="1" parent="ctgBbKC-Sr3JcYhxxYbN-1">
          <mxGeometry x="530" y="350" width="100" height="120" as="geometry" />
        </mxCell>
        <mxCell id="ctgBbKC-Sr3JcYhxxYbN-24" value="數據處理" style="html=1;shadow=0;dashed=0;align=center;verticalAlign=middle;shape=mxgraph.arrows2.arrow;dy=0;dx=30;notch=30;rotation=90;horizontal=0;" vertex="1" parent="ctgBbKC-Sr3JcYhxxYbN-1">
          <mxGeometry x="850" y="110" width="100" height="120" as="geometry" />
        </mxCell>
        <mxCell id="ctgBbKC-Sr3JcYhxxYbN-25" value="神徑網絡" style="html=1;shadow=0;dashed=0;align=center;verticalAlign=middle;shape=mxgraph.arrows2.arrow;dy=0;dx=30;notch=30;rotation=90;horizontal=0;" vertex="1" parent="ctgBbKC-Sr3JcYhxxYbN-1">
          <mxGeometry x="850" y="270" width="100" height="120" as="geometry" />
        </mxCell>
        <mxCell id="ctgBbKC-Sr3JcYhxxYbN-26" value="GPIO" style="html=1;shadow=0;dashed=0;align=center;verticalAlign=middle;shape=mxgraph.arrows2.arrow;dy=0;dx=30;notch=30;rotation=90;horizontal=0;" vertex="1" parent="ctgBbKC-Sr3JcYhxxYbN-1">
          <mxGeometry x="370" y="190" width="100" height="120" as="geometry" />
        </mxCell>
        <mxCell id="ctgBbKC-Sr3JcYhxxYbN-27" value="電學基礎" style="html=1;shadow=0;dashed=0;align=center;verticalAlign=middle;shape=mxgraph.arrows2.arrow;dy=0;dx=30;notch=30;rotation=90;horizontal=0;" vertex="1" parent="ctgBbKC-Sr3JcYhxxYbN-1">
          <mxGeometry x="370" y="110" width="100" height="120" as="geometry" />
        </mxCell>
        <mxCell id="ctgBbKC-Sr3JcYhxxYbN-28" value="通訊方式" style="html=1;shadow=0;dashed=0;align=center;verticalAlign=middle;shape=mxgraph.arrows2.arrow;dy=0;dx=30;notch=30;rotation=90;horizontal=0;" vertex="1" parent="ctgBbKC-Sr3JcYhxxYbN-1">
          <mxGeometry x="370" y="270" width="100" height="120" as="geometry" />
        </mxCell>
        <mxCell id="ctgBbKC-Sr3JcYhxxYbN-29" value="HTML&lt;br&gt;CSS" style="html=1;shadow=0;dashed=0;align=center;verticalAlign=middle;shape=mxgraph.arrows2.arrow;dy=0;dx=30;notch=30;rotation=90;horizontal=0;" vertex="1" parent="ctgBbKC-Sr3JcYhxxYbN-1">
          <mxGeometry x="210" y="110" width="100" height="120" as="geometry" />
        </mxCell>
        <mxCell id="ctgBbKC-Sr3JcYhxxYbN-30" value="進階神徑網絡" style="html=1;shadow=0;dashed=0;align=center;verticalAlign=middle;shape=mxgraph.arrows2.arrow;dy=0;dx=30;notch=30;rotation=90;horizontal=0;" vertex="1" parent="ctgBbKC-Sr3JcYhxxYbN-1">
          <mxGeometry x="850" y="430" width="100" height="120" as="geometry" />
        </mxCell>
        <mxCell id="ctgBbKC-Sr3JcYhxxYbN-31" value="Javascript&lt;br&gt;JQuery" style="html=1;shadow=0;dashed=0;align=center;verticalAlign=middle;shape=mxgraph.arrows2.arrow;dy=0;dx=30;notch=30;rotation=90;horizontal=0;" vertex="1" parent="ctgBbKC-Sr3JcYhxxYbN-1">
          <mxGeometry x="210" y="190" width="100" height="120" as="geometry" />
        </mxCell>
        <mxCell id="ctgBbKC-Sr3JcYhxxYbN-32" value="伺服器" style="html=1;shadow=0;dashed=0;align=center;verticalAlign=middle;shape=mxgraph.arrows2.arrow;dy=0;dx=30;notch=30;rotation=90;horizontal=0;" vertex="1" parent="ctgBbKC-Sr3JcYhxxYbN-1">
          <mxGeometry x="210" y="270" width="100" height="120" as="geometry" />
        </mxCell>
        <mxCell id="ctgBbKC-Sr3JcYhxxYbN-33" value="後台編程" style="html=1;shadow=0;dashed=0;align=center;verticalAlign=middle;shape=mxgraph.arrows2.arrow;dy=0;dx=30;notch=30;rotation=90;horizontal=0;" vertex="1" parent="ctgBbKC-Sr3JcYhxxYbN-1">
          <mxGeometry x="210" y="350" width="100" height="120" as="geometry" />
        </mxCell>
        <mxCell id="ctgBbKC-Sr3JcYhxxYbN-34" value="數據庫" style="html=1;shadow=0;dashed=0;align=center;verticalAlign=middle;shape=mxgraph.arrows2.arrow;dy=0;dx=30;notch=30;rotation=90;horizontal=0;" vertex="1" parent="ctgBbKC-Sr3JcYhxxYbN-1">
          <mxGeometry x="210" y="430" width="100" height="120" as="geometry" />
        </mxCell>
        <mxCell id="ctgBbKC-Sr3JcYhxxYbN-35" value="語音工具" style="html=1;shadow=0;dashed=0;align=center;verticalAlign=middle;shape=mxgraph.arrows2.arrow;dy=0;dx=30;notch=30;rotation=90;horizontal=0;" vertex="1" parent="ctgBbKC-Sr3JcYhxxYbN-1">
          <mxGeometry x="690" y="110" width="100" height="120" as="geometry" />
        </mxCell>
        <mxCell id="ctgBbKC-Sr3JcYhxxYbN-36" value="過濾雜訊" style="html=1;shadow=0;dashed=0;align=center;verticalAlign=middle;shape=mxgraph.arrows2.arrow;dy=0;dx=30;notch=30;rotation=90;horizontal=0;" vertex="1" parent="ctgBbKC-Sr3JcYhxxYbN-1">
          <mxGeometry x="370" y="350" width="100" height="120" as="geometry" />
        </mxCell>
        <mxCell id="ctgBbKC-Sr3JcYhxxYbN-37" value="應用工具" style="html=1;shadow=0;dashed=0;align=center;verticalAlign=middle;shape=mxgraph.arrows2.arrow;dy=0;dx=30;notch=0;rotation=90;horizontal=0;" vertex="1" parent="ctgBbKC-Sr3JcYhxxYbN-1">
          <mxGeometry x="690" y="30" width="100" height="120" as="geometry" />
        </mxCell>
        <mxCell id="ctgBbKC-Sr3JcYhxxYbN-38" value="使用模型" style="html=1;shadow=0;dashed=0;align=center;verticalAlign=middle;shape=mxgraph.arrows2.arrow;dy=0;dx=30;notch=30;rotation=90;horizontal=0;" vertex="1" parent="ctgBbKC-Sr3JcYhxxYbN-1">
          <mxGeometry x="690" y="190" width="100" height="120" as="geometry" />
        </mxCell>
        <mxCell id="ctgBbKC-Sr3JcYhxxYbN-39" value="程式設計" style="html=1;shadow=0;dashed=0;align=center;verticalAlign=middle;shape=mxgraph.arrows2.arrow;dy=0;dx=30;notch=0;rotation=90;horizontal=0;" vertex="1" parent="ctgBbKC-Sr3JcYhxxYbN-1">
          <mxGeometry x="50" y="30" width="100" height="120" as="geometry" />
        </mxCell>
        <mxCell id="ctgBbKC-Sr3JcYhxxYbN-40" value="網頁設計" style="html=1;shadow=0;dashed=0;align=center;verticalAlign=middle;shape=mxgraph.arrows2.arrow;dy=0;dx=30;notch=0;rotation=90;horizontal=0;" vertex="1" parent="ctgBbKC-Sr3JcYhxxYbN-1">
          <mxGeometry x="210" y="30" width="100" height="120" as="geometry" />
        </mxCell>
        <mxCell id="ctgBbKC-Sr3JcYhxxYbN-45" value="Linux" style="html=1;shadow=0;dashed=0;align=center;verticalAlign=middle;shape=mxgraph.arrows2.arrow;dy=0;dx=30;notch=30;rotation=90;horizontal=0;" vertex="1" parent="ctgBbKC-Sr3JcYhxxYbN-1">
          <mxGeometry x="690" y="270" width="100" height="120" as="geometry" />
        </mxCell>
        <mxCell id="ctgBbKC-Sr3JcYhxxYbN-46" value="ROS" style="html=1;shadow=0;dashed=0;align=center;verticalAlign=middle;shape=mxgraph.arrows2.arrow;dy=0;dx=30;notch=30;rotation=90;horizontal=0;" vertex="1" parent="ctgBbKC-Sr3JcYhxxYbN-1">
          <mxGeometry x="690" y="350" width="100" height="120" as="geometry" />
        </mxCell>
        <mxCell id="ctgBbKC-Sr3JcYhxxYbN-47" value="數學應用" style="html=1;shadow=0;dashed=0;align=center;verticalAlign=middle;shape=mxgraph.arrows2.arrow;dy=0;dx=30;notch=0;rotation=90;horizontal=0;" vertex="1" parent="ctgBbKC-Sr3JcYhxxYbN-1">
          <mxGeometry x="1010" y="30" width="100" height="120" as="geometry" />
        </mxCell>
        <mxCell id="ctgBbKC-Sr3JcYhxxYbN-48" value="坐標系統" style="html=1;shadow=0;dashed=0;align=center;verticalAlign=middle;shape=mxgraph.arrows2.arrow;dy=0;dx=30;notch=30;rotation=90;horizontal=0;" vertex="1" parent="ctgBbKC-Sr3JcYhxxYbN-1">
          <mxGeometry x="1010" y="110" width="100" height="120" as="geometry" />
        </mxCell>
        <mxCell id="ctgBbKC-Sr3JcYhxxYbN-49" value="三角函數" style="html=1;shadow=0;dashed=0;align=center;verticalAlign=middle;shape=mxgraph.arrows2.arrow;dy=0;dx=30;notch=30;rotation=90;horizontal=0;" vertex="1" parent="ctgBbKC-Sr3JcYhxxYbN-1">
          <mxGeometry x="1010" y="270" width="100" height="120" as="geometry" />
        </mxCell>
        <mxCell id="ctgBbKC-Sr3JcYhxxYbN-50" value="通項式" style="html=1;shadow=0;dashed=0;align=center;verticalAlign=middle;shape=mxgraph.arrows2.arrow;dy=0;dx=30;notch=30;rotation=90;horizontal=0;" vertex="1" parent="ctgBbKC-Sr3JcYhxxYbN-1">
          <mxGeometry x="1010" y="190" width="100" height="120" as="geometry" />
        </mxCell>
        <mxCell id="ctgBbKC-Sr3JcYhxxYbN-51" value="統計公式" style="html=1;shadow=0;dashed=0;align=center;verticalAlign=middle;shape=mxgraph.arrows2.arrow;dy=0;dx=30;notch=30;rotation=90;horizontal=0;" vertex="1" parent="ctgBbKC-Sr3JcYhxxYbN-1">
          <mxGeometry x="1010" y="350" width="100" height="120" as="geometry" />
        </mxCell>
      </root>
    </mxGraphModel>
  </diagram>
</mxfile>
